PathFileType	4	(X/Y/Z)	s04c0301.trc
DataRate	CameraRate	NumFrames	NumMarkers	Units	OrigDataRate	OrigDataStartFrame	OrigNumFrames
200	200	4	50	mm	200	750	2000
Frame#	Time	racr			lacr			c7			jug			rlel			rdr			llel			ldr			s2			lic			ric			lasi			rasi			rpsi			lpsi			rgt			lgt			rth1			rth2			rth3			rth4			rlfc			rmfc			rsh1			rsh2			rsh3			rsh4			rlmal			rmmal			rcal			rtoe			rmt5			lth1			lth2			lth4			lth3			llfc			lmfc			lsh1			lsh2			lsh3			lsh4			llmal			lmmal			lcal			ltoe			lmt5			SBIKE			LBIKE			RBIKE			
		X1	Y1	Z1	X2	Y2	Z2	X3	Y3	Z3	X4	Y4	Z4	X5	Y5	Z5	X6	Y6	Z6	X7	Y7	Z7	X8	Y8	Z8	X9	Y9	Z9	X10	Y10	Z10	X11	Y11	Z11	X12	Y12	Z12	X13	Y13	Z13	X14	Y14	Z14	X15	Y15	Z15	X16	Y16	Z16	X17	Y17	Z17	X18	Y18	Z18	X19	Y19	Z19	X20	Y20	Z20	X21	Y21	Z21	X22	Y22	Z22	X23	Y23	Z23	X24	Y24	Z24	X25	Y25	Z25	X26	Y26	Z26	X27	Y27	Z27	X28	Y28	Z28	X29	Y29	Z29	X30	Y30	Z30	X31	Y31	Z31	X32	Y32	Z32	X33	Y33	Z33	X34	Y34	Z34	X35	Y35	Z35	X36	Y36	Z36	X37	Y37	Z37	X38	Y38	Z38	X39	Y39	Z39	X40	Y40	Z40	X41	Y41	Z41	X42	Y42	Z42	X43	Y43	Z43	X44	Y44	Z44	X45	Y45	Z45	X46	Y46	Z46	X47	Y47	Z47	X48	Y48	Z48	X49	Y49	Z49	X50	Y50	Z50	
750	3.7500	804.303394	1293.102641	-100.451452	813.060129	1291.765585	-414.757296	798.005499	1369.631541	-250.585481	766.675191	1214.601937	-268.629734	562.248710	1122.074873	44.974316	702.198340	927.378429	-106.100138	609.629443	1143.683569	-578.947066	700.064641	907.299081	-484.045224	229.583485	1305.886901	-354.596691	409.774426	1234.733564	-469.974305	342.562592	1315.284406	-166.310198	418.321000	1186.008070	-414.698554	373.986298	1244.174471	-186.993484	261.488826	1351.298524	-317.294166	278.941383	1333.697455	-390.118382	295.334961	1281.258609	-146.986468	324.468134	1153.075065	-493.741857	397.301753	1157.089366	-124.139745	470.930648	1108.512466	-126.960402	512.216488	1034.031310	-122.967503	494.378287	1130.062388	-147.967317	597.617661	910.578707	-139.142117	576.259735	889.870515	-251.524191	516.697416	817.989261	-111.021502	474.030292	737.715138	-121.964005	398.322688	696.269157	-124.743677	498.628747	718.968937	-145.160518	301.734948	574.762466	-127.357501	320.844114	572.805648	-212.285396	223.769389	573.573647	-162.056306	485.792215	427.067070	-169.657663	419.383121	434.512535	-109.105094	329.420690	1066.908737	-502.383266	359.312637	985.413183	-496.993099	392.499365	989.398065	-483.603604	344.365781	897.445657	-499.215863	332.584408	731.549480	-477.926106	345.600924	701.060076	-365.477458	274.406418	615.293175	-496.176981	248.533802	535.336030	-473.563035	185.120480	473.303484	-472.130821	273.404252	524.749110	-444.660056	104.138342	346.452034	-465.601790	99.213127	351.261591	-376.735675	35.859784	381.956648	-426.562084	228.828936	145.853329	-403.417103	158.437938	171.587765	-470.686538	-185.647341	935.339488	-286.030081	-17.560063	79.581614	-485.427612	-17.479847	79.464973	-84.814858	
751	3.7550	804.589174	1291.487883	-101.392689	812.221901	1290.973377	-415.111188	797.582477	1368.301542	-251.364692	766.587528	1213.226011	-269.502391	560.354473	1122.524608	43.314875	702.022981	927.785789	-106.396045	609.718987	1143.135271	-580.085059	700.155920	908.437907	-488.265109	229.768493	1309.553596	-351.734034	408.007232	1237.660550	-469.263423	343.783117	1315.793227	-164.445436	416.931558	1188.126515	-414.577132	374.839971	1244.869516	-186.301443	262.170877	1354.275197	-314.565347	279.243328	1336.971154	-387.624714	296.346942	1281.727099	-145.490434	324.005477	1156.981293	-493.460446	396.811213	1155.751284	-123.852826	469.580210	1106.159947	-127.524949	509.680674	1030.846165	-124.690284	493.085443	1127.578310	-148.428935	593.339416	905.812781	-142.040409	570.527571	885.155285	-254.113841	514.475122	810.842795	-112.992045	473.140326	729.661313	-123.898871	398.644745	686.573378	-125.805595	497.296113	711.099471	-148.430345	304.513874	563.859934	-126.864922	323.012904	562.395680	-212.111506	226.161121	560.412141	-160.810671	492.457034	421.614220	-170.009088	426.156440	427.174010	-109.127475	331.050699	1069.528799	-501.346660	363.115400	988.809370	-495.988316	395.955028	993.569251	-481.888567	350.553423	900.603785	-499.011508	341.097222	735.189268	-478.878860	353.542245	704.202670	-366.393750	279.673091	620.200566	-496.721602	251.343541	541.127241	-474.023158	185.984378	481.213473	-472.663725	275.681379	529.829856	-444.774415	100.768983	355.938719	-465.705217	95.726622	361.086932	-376.998680	32.766149	392.762622	-426.427070	220.910715	152.357451	-403.315371	151.264163	179.955687	-470.556275	-185.587630	935.365713	-285.940285	-17.574373	79.602640	-485.425945	-17.503976	79.457241	-84.820822	
752	3.7600	804.822903	1290.024417	-102.357740	811.266056	1290.362021	-415.661097	797.028341	1367.131669	-252.155250	766.455429	1212.002302	-270.457528	558.586643	1122.814651	41.681043	701.823890	928.042632	-106.660249	609.690620	1142.653702	-581.226393	699.836611	908.031590	-488.060136	229.904372	1312.704078	-348.696313	406.234675	1240.520486	-468.491152	344.786950	1316.225905	-161.765997	415.644840	1190.131821	-414.399392	376.258698	1245.897195	-184.925203	262.665599	1356.463336	-310.701471	279.199229	1339.960186	-384.300272	297.030909	1281.428973	-143.630309	323.362780	1160.689027	-492.741500	396.302278	1153.749365	-123.393819	468.198645	1102.964989	-127.927493	507.090341	1026.866236	-126.329733	491.896136	1124.246435	-148.791579	588.732138	900.312275	-144.680114	564.490579	880.277348	-256.045267	511.894299	803.221422	-115.331749	472.125337	721.167082	-125.927734	398.856891	676.282149	-127.209257	496.463189	703.207207	-150.848910	307.323383	552.628434	-126.357792	325.888661	551.116521	-212.192476	228.900411	547.200650	-160.098913	498.581877	414.884773	-170.386860	432.412498	419.103227	-109.117016	333.005536	1072.298779	-500.883994	367.101215	992.363821	-495.152381	399.558375	997.889916	-480.337615	357.015777	903.849445	-498.806584	349.674043	738.591073	-479.649436	361.567431	707.433463	-367.277876	285.246023	625.171146	-497.378957	254.405936	547.132015	-474.547136	187.163364	489.062111	-473.007936	278.100995	535.167330	-444.965350	97.972945	365.988436	-465.574811	92.842587	371.335536	-377.157830	30.474666	404.238652	-426.124532	213.195892	159.391019	-403.015327	144.519632	188.865022	-470.243368	-185.483995	935.412699	-285.868091	-17.572863	79.644864	-485.425791	-17.488082	79.423290	-84.791753	
753	3.7650	805.051003	1288.457486	-103.099954	810.243928	1289.879638	-416.452422	796.417556	1365.966116	-252.659334	766.298624	1210.811301	-271.404023	556.816637	1122.912628	40.052592	701.601470	928.177641	-106.947907	609.352436	1142.223845	-582.462374	699.495888	907.911914	-488.063704	229.920265	1315.360911	-345.503085	404.482649	1243.231554	-467.723632	346.115112	1315.830371	-159.796009	414.405321	1192.217200	-414.240266	377.292327	1245.813620	-184.273790	262.990569	1358.423038	-307.151302	279.105947	1342.709110	-381.103319	298.198336	1280.673795	-141.488758	322.839461	1164.396937	-491.991021	395.803414	1151.013200	-122.833849	466.632209	1098.754876	-128.550527	503.955328	1022.374959	-127.274956	490.745089	1120.133399	-149.001481	583.824719	894.338129	-147.128578	558.392947	874.883140	-257.924584	508.992749	795.193949	-117.518799	470.865390	712.493626	-127.730317	398.757871	665.920794	-128.297639	495.390995	695.210494	-152.985853	310.479208	540.662710	-125.898692	328.190195	539.869482	-212.285996	232.148877	534.086802	-159.817159	504.297608	407.392056	-170.590773	438.240715	410.304020	-109.268550	334.969309	1075.032056	-500.199275	371.145694	995.964682	-494.264537	403.204579	1002.286413	-478.898770	363.465124	907.234532	-498.481282	357.965032	742.066635	-480.290291	369.543853	710.654467	-368.067918	290.932700	630.235256	-498.340387	257.625288	553.231743	-474.944461	188.514779	497.246555	-473.193141	280.803080	540.717541	-445.268212	96.095860	375.892632	-465.233171	90.849262	381.578887	-377.157506	28.974746	415.799484	-425.690146	206.550520	166.629966	-403.045405	138.539595	197.866132	-470.178632	-185.366131	935.488805	-285.758904	-17.582225	79.707230	-485.408426	-17.506718	79.465289	-84.796918	
